<svg width="21" height="16" viewBox="0 0 21 16" fill="none" xmlns="http://www.w3.org/2000/svg">
<path fill-rule="evenodd" clip-rule="evenodd" d="M20.25 14C20.25 14.2984 20.1315 14.5845 19.9205 14.7955C19.7095 15.0065 19.4234 15.125 19.125 15.125H1.125C0.826631 15.125 0.540483 15.0065 0.329505 14.7955C0.118527 14.5845 0 14.2984 0 14C0 13.7016 0.118527 13.4155 0.329505 13.2045C0.540483 12.9935 0.826631 12.875 1.125 12.875H19.125C19.4234 12.875 19.7095 12.9935 19.9205 13.2045C20.1315 13.4155 20.25 13.7016 20.25 14ZM19.125 9.125C19.4234 9.125 19.7095 9.00647 19.9205 8.79549C20.1315 8.58452 20.25 8.29837 20.25 8C20.25 7.70163 20.1315 7.41548 19.9205 7.20451C19.7095 6.99353 19.4234 6.875 19.125 6.875H1.125C0.826631 6.875 0.540483 6.99353 0.329505 7.20451C0.118527 7.41548 0 7.70163 0 8C0 8.29837 0.118527 8.58452 0.329505 8.79549C0.540483 9.00647 0.826631 9.125 1.125 9.125H19.125ZM20.25 2C20.25 2.29837 20.1315 2.58452 19.9205 2.79549C19.7095 3.00647 19.4234 3.125 19.125 3.125H1.125C0.826631 3.125 0.540483 3.00647 0.329505 2.79549C0.118527 2.58452 0 2.29837 0 2C0 1.70163 0.118527 1.41548 0.329505 1.2045C0.540483 0.993527 0.826631 0.875 1.125 0.875H19.125C19.4234 0.875 19.7095 0.993527 19.9205 1.2045C20.1315 1.41548 20.25 1.70163 20.25 2Z" fill="#3A4362"/>
</svg>